<?xml version="1.0" encoding="UTF-8"?>
<svg width="379px" height="480px" viewBox="0 0 379 480" version="1.1" xmlns="http://www.w3.org/2000/svg" xmlns:xlink="http://www.w3.org/1999/xlink">
    <!-- Generator: Sketch 57.1 (83088) - https://sketch.com -->
    <title>favicon</title>
    <desc>Created with Sketch.</desc>
    <g id="Page-1" stroke="none" stroke-width="1" fill="none" fill-rule="evenodd">
        <g id="favicon" transform="translate(4.333333, 7.333333)">
            <g id="color" fill-rule="nonzero">
                <path d="M14.9333333,206.333333 L238.222222,326.511111 C238.222222,326.511111 177.066667,352.111111 100.977778,318.688889 C101.688889,318.688889 37.6888889,279.577778 14.9333333,206.333333 Z" id="Layer" fill="#A57939"></path>
                <path d="M270.933333,315.133333 C269.985185,316.081481 269.037037,316.792593 268.088889,317.266667 C233.955556,343.577778 182.044444,340.022222 135.822222,329.355556 L135.111111,329.355556 C135.111111,329.355556 127.288889,327.933333 123.733333,335.755556 L73.9555556,309.444444 C78.2222222,302.333333 73.2444444,296.644444 73.2444444,296.644444 C21.3333333,249 -4.97777778,190.688889 32,120.288889 C75.3777778,37.8 160,-34.7333333 260.266667,17.8888889 C340.622222,60.5555556 355.555556,137.355556 334.933333,206.333333 C334.933333,206.333333 317.866667,274.6 270.933333,315.133333 L270.933333,315.133333 Z" id="Layer" fill="#65D46E"></path>
                <path d="M238.222222,326.511111 L17.7777778,209.177778" id="Layer" fill="#EA5A47"></path>
                <path d="M69.6888889,470.866667 L98.8444444,407.577778 L154.311111,281.711111 L108.088889,257.533333 L35.5555556,373.444444 L2.13333333,426.066667 C-2.84217094e-14,429.622222 -2.84217094e-14,431.044444 0.711111111,433.888889 C1.42222222,437.444444 3.55555556,440.288889 7.11111111,443.133333 C7.11111111,443.133333 17.0666667,453.088889 36.2666667,461.622222 C36.2666667,461.622222 64.7111111,475.133333 69.6888889,470.866667 Z" id="Layer" fill="#A57939"></path>
                <path d="M304.355556,324.511111 C270.875556,324.511111 242.355556,295.991111 242.355556,262.511111 C242.355556,227.791111 270.875556,200.511111 304.355556,200.511111 C339.075556,200.511111 366.355556,227.791111 366.355556,262.511111 C366.355556,295.991111 339.075556,324.511111 304.355556,324.511111 Z" id="Layer" fill="#FFFFFF"></path>
            </g>
            <g id="line" transform="translate(3.000000, 0.000000)" stroke="#000000" stroke-linecap="round" stroke-linejoin="round" stroke-width="14.2222222">
                <path d="M120.733333,335.755556 C124.288889,327.933333 132.111111,329.355556 132.111111,329.355556 L132.822222,329.355556 C180.466667,340.733333 225.266667,338.6 260.822222,312.288889" id="Layer"></path>
                <path d="M70.9555556,309.444444 C75.2222222,302.333333 70.2444444,296.644444 70.2444444,296.644444 C18.3333333,249 -7.97777778,190.688889 29,120.288889 C72.3777778,37.8 157,-34.7333333 257.266667,17.8888889 C337.622222,60.5555556 345.444444,133.8 325.533333,202.777778" id="Layer"></path>
                <path d="M235.222222,326.511111 L14.7777778,209.177778" id="Layer"></path>
                <path d="M63.8444444,464.466667 L91.5777778,400.466667 L146.333333,278.866667 L103.666667,256.822222 L33.9777778,369.888889 L1.97777778,420.377778 C0.555555556,423.933333 0.555555556,425.355556 0.555555556,428.2 C1.26666667,431.044444 3.4,433.888889 6.24444444,436.733333 C6.24444444,436.733333 18.3333333,447.4 36.1111111,455.222222" id="Layer"></path>
                <path d="M301.355556,325.511111 C267.335556,325.511111 238.355556,296.531111 238.355556,262.511111 C238.355556,227.231111 267.335556,199.511111 301.355556,199.511111 C336.635556,199.511111 364.355556,227.231111 364.355556,262.511111 C364.355556,296.531111 336.635556,325.511111 301.355556,325.511111 Z" id="Layer"></path>
            </g>
        </g>
    </g>
</svg>